<?xml version="1.0" encoding="utf-8"?>
<!-- Generator: Adobe Illustrator 16.0.0, SVG Export Plug-In . SVG Version: 6.00 Build 0)  -->
<!DOCTYPE svg PUBLIC "-//W3C//DTD SVG 1.1//EN" "http://www.w3.org/Graphics/SVG/1.1/DTD/svg11.dtd">
<svg version="1.1" id="Layer_1" xmlns="http://www.w3.org/2000/svg" xmlns:xlink="http://www.w3.org/1999/xlink" x="0px" y="0px"
	 width="679px" height="86px" viewBox="0 0 679 86" enable-background="new 0 0 679 86" xml:space="preserve">
<path fill="#EF3E42" d="M536.852,56.955c0-4.587,0.014-10.132,0.014-10.132s0.354-5.314-3.26-5.314
	c-4.032,0-3.484,5.097-3.484,5.097s-0.055,5.693-0.055,10.35h-14.886c0-6.588,0-22.554,0-22.554l14.953-0.002
	c0,0-0.002,0.932-0.002,1.677c8.295-4.474,14.666-3.803,18.506-0.469c2.518,2.447,2.258,6.935,2.258,6.935l-0.005,14.413
	C550.891,56.955,541.98,56.955,536.852,56.955"/>
<path fill="#EF3E42" d="M459.824,56.955c0,0,0.007-3.835,0.007-6.112c0-5.426,0.244-8.626-3.602-8.626
	c-4.452,0-3.854,3.55-3.854,8.089v6.649h-15.214V23.062c6.166,0,15.214,0,15.214,0V35.1c4.277-1.473,10.987-2.818,16.058-0.565
	c3.196,1.694,5.342,4.446,5.338,7.134v15.287C468.947,56.955,459.824,56.955,459.824,56.955"/>
<path fill="#EF3E42" d="M327.609,19.071l0.013,13.367c0,0,0,0.973,0,2.458c0,1.064,2.228,1.198,3.334,0.17
	c2.248-2.191,8.082-10.708,11.61-15.995h11.238c-3.096,4.952-6.317,10.691-9.914,16.267c0,0,0.98-0.396,2.754,1.477
	c1.984,2.097,11.104,20.14,11.104,20.14c-6.437,0-13.344,0-19.713,0c-2.92-7.562-3.771-10.458-5.934-11.444
	c-2.117-0.967-4.492-0.564-4.492,0.447c0,2.543,0,10.997,0,10.997H311V19.071H327.609"/>
<rect x="358.875" y="34.521" fill="#EF3E42" width="15.205" height="22.434"/>
<path fill="#EF3E42" d="M366.201,33.106c4.189,0,7.587-2.506,7.587-5.596c0-3.09-3.397-5.595-7.587-5.595
	c-4.192,0-7.588,2.505-7.588,5.595C358.613,30.6,362.009,33.106,366.201,33.106"/>
<g>
	<polyline fill="#EF3E42" points="618.471,34.401 618.471,56.955 603.265,56.955 	"/>
	<path fill="#EF3E42" d="M622.461,52.289c-2.483-3.881-2.815-7.884-1.689-11.826c1.353-3.859,5.378-6.942,10.7-7.886
		c4.603-0.733,9.23,0.742,13.127,1.529c0-0.047,0-12.036,0-12.036h14.483v34.885h-14.483c0,0-0.008-2.041,0-1.984
		C637.84,57.786,627.021,58.669,622.461,52.289 M642.415,48.424c1.374-0.448,1.374-0.593,2.151-1.329
		c0.025-1.008,0.092-3.021,0-4.248c-1.691-1.69-5.07-2.125-6.657-0.564C634.732,45.885,638.825,49.253,642.415,48.424z"/>
</g>
<path fill="#EF3E42" d="M578.1,50.947h-14.427l-3.032,6.008h-7.886l13.919-31.861c2-4.357-2.9-3.967-0.647-5.094h20.021
	l15.143,36.955c-6.194,0-13.269,0-20.272,0L578.1,50.33 M567.438,42.081l7.027-0.04l-3.419-8.567L567.438,42.081z"/>
<rect x="603.265" y="34.521" fill="#EF3E42" width="15.206" height="22.434"/>
<g>
	<path fill="#EF3E42" d="M610.589,33.106c4.19,0,7.589-2.506,7.589-5.596c0-3.09-3.398-5.595-7.589-5.595
		c-4.189,0-7.587,2.505-7.587,5.595C603.002,30.6,606.399,33.106,610.589,33.106"/>
	<path fill="#EF3E42" d="M382.792,55.065c4.803,4.804,11.29,3.511,16.984,1.502c0.886-0.314,1.359-0.646,1.797-0.915
		c0.437-0.268,0.751-0.58,0.751-0.58v-4.579c0,0-3.803,2.019-5.636,0.187c-1.075-1.074-1.007-2.776-1.007-2.776v-4.565
		c0,0-0.045-0.88,0.161-1.087c0.324-0.324,1.209-0.174,1.209-0.174h5.272v-6.541c-0.609,0-5.34,0-5.34,0s-0.74,0.16-1.168-0.268
		c-0.177-0.178-0.135-0.984-0.135-0.984v-5.261l-14.124,0.008l-0.002,5.32c0,0,0.046,0.522-0.135,0.85
		c-0.198,0.356-0.936,0.335-0.936,0.335h-3.589v6.541h3.322c0,0,0.62-0.168,0.989,0.2c0.169,0.17,0.068,1.061,0.068,1.061
		s0,4.754,0,6.542C381.276,53.263,382.347,54.621,382.792,55.065"/>
	<path fill="#EF3E42" d="M407.015,53.067c-3.377-2.818-4.329-8.254-2.251-12.955c5.634-9.786,22.125-9.87,29.288-4.505v6.757
		c-3.381-1.687-7.889-2.815-11.265-1.124c-2.818,1.124-3.379,4.505-2.254,6.197c2.814,3.939,7.938,2.812,11.318,1.686
		c2.958-1.359,2.254-1.091,2.254,0.566l-0.054,5.632C426.163,59.262,413.21,59.262,407.015,53.067"/>
</g>
<path fill="#EF3E42" d="M497.509,42.298c0.022-1.013-0.289-2.891-2.336-2.891c-1.917,0-2.921,1.141-2.921,2.891H497.509
	 M476.814,47.545c-0.413-4.954,0.451-6.692,1.536-8.747c2.806-4.492,9.417-6.737,15.156-6.737c5.788,0,12.347,1.124,15.715,5.052
	c2.243,2.806,2.673,6.295,2.673,10.998l-19.512,0.014c0,2.246,3.003,3.203,5.611,3.58c5.144,0.29,8.982-1.121,13.471-2.243
	c0,2.904,0.002,5.173,0.002,5.173s-3.809,3.542-17.817,3.393C484.763,57.931,477.448,55.183,476.814,47.545z"/>
<path fill="#EF3E42" d="M669.379,21.923c3.283,0,6.036,2.591,6.036,5.99c0,3.459-2.753,6.05-6.036,6.05
	c-3.3,0-6.068-2.591-6.068-6.05C663.311,24.514,666.079,21.923,669.379,21.923 M669.379,33.079c2.784,0,4.939-2.222,4.939-5.166
	c0-2.883-2.155-5.104-4.939-5.104c-2.816,0-4.974,2.222-4.974,5.104C664.405,30.856,666.562,33.079,669.379,33.079z M667.027,24.418
	h2.724c1.672,0,2.462,0.66,2.462,2.012c0,1.271-0.804,1.802-1.854,1.917l2.013,3.104h-1.176l-1.916-3.027h-1.155v3.027h-1.098
	V24.418z M668.125,27.541h1.142c0.963,0,1.85-0.05,1.85-1.16c0-0.934-0.804-1.077-1.544-1.077h-1.447V27.541z"/>
<g>
	<g>
		<path fill="#231F20" d="M82.816,66.912c0.231-0.405,0.231,13.706-5.841,16.887c-7.344,3.816-21.86-1.562-53.377-21.051
			C12.899,70.613-0.98,66.681,2.142,58.874c4.626-11.451,12.896-7.98,22.149-2.66c2.949-3.123,9.195-44.53,14.805-52.626
			c1.099-0.579,3.354-0.868,5.436-0.81c7.345-5.031,24.405,5.32-1.099,24.173c-0.925,0-1.157-0.983-0.636-1.388
			c7.923-5.494,12.318-22.669,4.048-15.557c-3.296,8.501-9.426,25.792-13.532,38.747c-1.272,3.933-3.065,7.113-5.147,9.658
			C37.592,65.466,75.876,77.611,82.816,66.912z M19.781,59.567c-4.511-3.585-7.75-5.609-8.443-3.181
			C10.585,59.105,15.443,60.956,19.781,59.567z"/>
		<path d="M55.523,25.39c2.255,0,4.511,0.462,4.511,1.908c0,0.81-0.694,2.198-2.949,4.626c-2.66,5.263-6.361,13.07-6.535,18.448
			v0.231c0,0.694,0.29,1.041,0.636,1.041c2.603,0,12.723-14.631,13.243-15.151c0.174-0.174,0.347-0.231,0.521-0.231
			c0.521,0,1.041,0.636,1.157,0.868c-0.058,0.289-11.682,18.332-16.713,22.207c-7.865,6.072-5.841-22.034,2.429-33.542
			C52.69,25.563,54.136,25.39,55.523,25.39z M60.266,12.32c1.446,0,3.585,1.619,3.585,3.643c0,4.222-5.552,10.005-8.732,4.8
			C53.095,17.698,57.201,12.32,60.266,12.32z"/>
		<path d="M72.064,12.551c0.521-0.983,6.188-2.255,7.633,1.561c2.487,6.593-0.81,17.35-10.756,24.868
			c-4.626,12.086-3.528,15.383-2.313,13.59c4.511-4.742,11.682-14.342,12.26-14.862c0.694-0.694,1.562,0.289,1.677,0.636
			c0,0-7.518,12.145-11.682,17.696c-6.651,8.848-9.138,0.347-8.386-7.229C61.481,38.98,66.339,24.001,72.064,12.551z M76.922,20.011
			c-2.313,5.089-4.395,10.121-6.246,14.573C76.517,28.396,77.79,22.671,76.922,20.011z"/>
		<path d="M86.986,25.39c2.255,0,4.511,0.462,4.511,1.908c0,0.81-0.694,2.198-2.949,4.626c-2.66,5.263-6.361,13.07-6.535,18.448
			v0.231c0,0.694,0.29,1.041,0.636,1.041c2.603,0,12.723-14.631,13.243-15.151c0.174-0.174,0.347-0.231,0.521-0.231
			c0.521,0,1.041,0.636,1.157,0.868c-0.058,0.289-11.682,18.332-16.713,22.207c-7.865,6.072-5.841-22.034,2.429-33.542
			C84.152,25.563,85.598,25.39,86.986,25.39z M91.728,12.32c1.446,0,3.585,1.619,3.585,3.643c0,4.222-5.552,10.005-8.732,4.8
			C84.557,17.698,88.663,12.32,91.728,12.32z"/>
		<path d="M103.527,12.551c0.521-0.983,6.188-2.255,7.633,1.561c2.487,6.593-0.81,17.35-10.756,24.868
			c-4.626,12.086-3.528,15.383-2.313,13.59c4.511-4.742,11.682-14.342,12.26-14.862c0.694-0.694,1.562,0.289,1.677,0.636
			c0,0-7.518,12.145-11.682,17.696c-6.651,8.848-9.138,0.347-8.386-7.229C92.944,38.98,97.802,24.001,103.527,12.551z
			 M108.385,20.011c-2.313,5.089-4.395,10.121-6.246,14.573C107.98,28.396,109.252,22.671,108.385,20.011z"/>
		<path d="M113.765,55.52c2.313,1.156,6.65-4.048,9.137-17.176c-5.263-1.214-8.732-4.626-5.263-10.583
			c3.528-6.13,11.045-0.81,12.607,6.882c2.834-0.925,6.361-2.603,10.699-5.436c1.041-1.099,5.089-1.677,7.865,0.173v0.058
			c0.925,0.521,0.925,2.371-3.528,8.039c-4.048,8.27-5.494,18.101-3.99,18.448c4.279,0.983,13.764-27.528,13.417-32.79
			c-0.116-1.793,5.667-1.446,6.246,0c5.436,5.898-14.631,40.192-21.167,37.59c-7.807-2.833-5.552-15.267-2.197-24.173
			c-1.909,1.099-4.453,1.851-7.056,2.14c-1.619,11.74-10.062,23.711-18.737,20.472c-0.694,0.116-1.157,0-1.677-0.462
			c-4.337-3.123-3.759-15.268,1.33-23.075c1.388-2.14,5.552,2.255,5.205,4.8C113.649,45.515,111.567,51.587,113.765,55.52z
			 M123.249,35.163c-0.058-1.504-0.462-2.776-1.503-3.065C120.068,31.635,120.068,34.295,123.249,35.163z"/>
		<path d="M183.513,37.823c0.867-0.925,1.619,0.636,1.619,0.636s-7.807,11.971-11.913,16.771c-4.048,4.742-8.964,5.783-11.162,0
			c-6.766-17.986,6.304-27.644,6.304-27.644c4.395-3.412,9.137-0.405,10.699,0.983c2.833,1.099,7.171,5.089-12.607,18.159
			c-0.694,5.667,1.156,9.08,6.535,3.007L183.513,37.823z M167.089,43.664c10.294-9.369,7.75-12.491,5.667-11.219
			C170.039,35.336,168.13,39.674,167.089,43.664z"/>
		<path d="M199.071,55.809c-0.405,0.347-2.833,2.313-4.511,2.313c-3.296,0-2.429-9.889-2.024-12.896
			c-1.909,4.106-4.048,8.443-6.072,12.434c0.116,0-2.487,2.429-4.106,2.429c-0.463,0-3.123-1.735-3.123-9.542
			c0-5.32,1.62-13.301,7.634-24.751c2.66-0.925,8.212-0.983,8.212,1.503c0,0.81-0.752,2.255-3.007,4.685
			c-4.221,7.576-6.65,14.747-6.419,21.397c1.214-3.181,6.13-16.54,10.352-21.513c1.388-3.181,9.947-2.95,9.947-0.752
			c0,0.868-0.867,2.487-3.585,5.378c-2.082,4.395-4.222,10.178-4.337,14.516c1.851-3.933,5.61-11.509,9.08-16.424
			c0.636-2.082,1.33-3.585,2.14-4.164c1.33-0.925,8.328-1.793,8.617,0.636c0.115,0.81-0.694,2.14-2.834,4.511
			c-1.908,4.337-4.164,10.41-4.916,15.209c4.8-4.685,12.434-14.342,13.012-14.863c0.694-0.694,1.562,0.29,1.677,0.636
			c0,0-11.797,17.176-14.168,19.894c-0.925,0.925-2.892,1.561-4.395,1.561c-3.528,0-1.504-9.484-1.504-13.012
			C202.079,48.175,200.575,52.107,199.071,55.809z"/>
		<path d="M222.149,55.346c-6.535-18.043,6.304-27.643,6.304-27.643c4.395-3.412,9.137-0.405,10.699,0.983
			c2.834,1.099,7.171,5.089-12.607,18.159c-2.255,14.284,8.906,5.147,9.079-2.892c0,0,3.181-1.503,3.701,3.181
			C240.886,53.322,226.313,66.854,222.149,55.346z M227.181,43.78c10.293-9.369,7.749-12.492,5.667-11.219
			C230.13,35.452,228.221,39.79,227.181,43.78z"/>
	</g>
</g>
<g>
	<path d="M271.265,44.97c-4.453-0.289-8.443-0.636-8.675-0.925c-1.503-1.909,0.925-5.263,3.701-5.263
		c1.388,0.173,3.759,0.231,6.304,0.173c1.041-4.742,1.851-9.021,1.851-9.079c0.694-2.718,5.32,2.024,4.974,4.8
		c-0.058,0.578-0.463,2.14-1.041,4.164c4.626-0.173,8.674-0.462,8.732-0.462c2.776,0-1.272,6.477-4.048,6.882
		c-0.751,0.116-3.412,0.058-6.593-0.058c-1.388,4.569-2.892,8.906-3.238,9.022c-2.198,0.983-4.164-1.388-3.47-4.048
		C270.167,49.018,270.745,47.109,271.265,44.97z"/>
</g>
</svg>
